<svg width="18" height="18" viewBox="0 0 18 18" fill="none" xmlns="http://www.w3.org/2000/svg">
<g id="CalendarTodayOutlined">
<path id="Vector" d="M13.75 2.25V2.75H14.25H15C15.5489 2.75 16 3.20114 16 3.75V15.75C16 16.2989 15.5489 16.75 15 16.75H3C2.45114 16.75 2 16.2989 2 15.75V3.75C2 3.20114 2.45114 2.75 3 2.75H3.75H4.25V2.25V1.25H4.75V2.25V2.75H5.25H12.75H13.25V2.25V1.25H13.75V2.25ZM15 16.25H15.5V15.75V7.5V7H15H3H2.5V7.5V15.75V16.25H3H15ZM15 6.5H15.5V6V3.75V3.25H15H3H2.5V3.75V6V6.5H3H15Z" fill="#303F9F" stroke="#303F9F"/>
</g>
</svg>
